<svg xmlns="http://www.w3.org/2000/svg" viewBox="0 0 1600 1000" role="img" aria-labelledby="title desc">
  <title id="title">Illustrated restaurant street near a university in Seoul</title>
  <desc id="desc">A warm evening street scene with restaurant lights, a campus gate silhouette, and small dining tables.</desc>
  <defs>
    <linearGradient id="sky" x1="0" x2="1" y1="0" y2="1">
      <stop offset="0" stop-color="#2b493f"/>
      <stop offset="0.55" stop-color="#6a6f52"/>
      <stop offset="1" stop-color="#d17249"/>
    </linearGradient>
    <linearGradient id="street" x1="0" x2="1">
      <stop offset="0" stop-color="#28362e"/>
      <stop offset="1" stop-color="#171f1c"/>
    </linearGradient>
    <filter id="soft" x="-20%" y="-20%" width="140%" height="140%">
      <feGaussianBlur stdDeviation="14"/>
    </filter>
  </defs>
  <rect width="1600" height="1000" fill="url(#sky)"/>
  <circle cx="1180" cy="190" r="84" fill="#ffd99f" opacity="0.78" filter="url(#soft)"/>
  <path d="M0 640 C280 560 430 615 650 545 C875 472 1070 525 1600 440 L1600 1000 L0 1000 Z" fill="#20332d" opacity="0.72"/>
  <path d="M150 545 L320 420 L500 545 Z" fill="#293b35"/>
  <path d="M230 545 L320 478 L410 545 Z" fill="#536b58"/>
  <rect x="275" y="545" width="90" height="175" fill="#223029"/>
  <path d="M790 426 L930 315 L1075 426 Z" fill="#293b35"/>
  <rect x="835" y="426" width="198" height="226" fill="#25352f"/>
  <rect x="878" y="472" width="112" height="36" fill="#e7b65d" opacity="0.86"/>
  <rect x="80" y="610" width="275" height="250" fill="#f0d8a8"/>
  <rect x="115" y="646" width="160" height="54" fill="#c94f36"/>
  <rect x="306" y="646" width="28" height="210" fill="#24352e"/>
  <rect x="435" y="575" width="290" height="290" fill="#e8cf98"/>
  <rect x="470" y="625" width="220" height="65" fill="#4c6f52"/>
  <rect x="752" y="604" width="320" height="260" fill="#f4e5bd"/>
  <rect x="796" y="652" width="236" height="60" fill="#c94f36"/>
  <rect x="1095" y="555" width="360" height="310" fill="#d7b779"/>
  <rect x="1138" y="605" width="270" height="68" fill="#36554a"/>
  <g fill="#fff2c8" opacity="0.9">
    <circle cx="175" cy="735" r="14"/>
    <circle cx="224" cy="735" r="14"/>
    <circle cx="522" cy="735" r="15"/>
    <circle cx="584" cy="735" r="15"/>
    <circle cx="864" cy="748" r="16"/>
    <circle cx="935" cy="748" r="16"/>
    <circle cx="1212" cy="725" r="17"/>
    <circle cx="1294" cy="725" r="17"/>
  </g>
  <path d="M0 790 C310 720 570 780 820 724 C1085 665 1300 722 1600 655 L1600 1000 L0 1000 Z" fill="url(#street)"/>
  <g stroke="#ffd99f" stroke-width="7" stroke-linecap="round" opacity="0.82">
    <path d="M650 855 L742 855"/>
    <path d="M882 820 L992 820"/>
    <path d="M1120 770 L1234 770"/>
  </g>
  <g fill="#141b18" opacity="0.86">
    <rect x="194" y="804" width="96" height="18"/>
    <rect x="214" y="822" width="10" height="70"/>
    <rect x="260" y="822" width="10" height="70"/>
    <rect x="510" y="812" width="118" height="20"/>
    <rect x="536" y="832" width="10" height="78"/>
    <rect x="598" y="832" width="10" height="78"/>
    <rect x="1250" y="792" width="124" height="20"/>
    <rect x="1275" y="812" width="10" height="78"/>
    <rect x="1344" y="812" width="10" height="78"/>
  </g>
  <g fill="#e8cf98" opacity="0.85">
    <rect x="0" y="924" width="1600" height="3"/>
    <rect x="0" y="944" width="1600" height="2"/>
  </g>
</svg>
